<svg xmlns="http://www.w3.org/2000/svg" enable-background="new 0 0 64 64" viewBox="0 0 64 64" id="mission-requirements"><circle cx="32" cy="32" r="32" fill="#53b4ed"></circle><path d="M58.41,55.83c-0.04-0.54-0.3-1.02-0.71-1.36l-11.18-9.4c-0.41-0.34-0.92-0.51-1.47-0.46c-0.3,0.03-0.59,0.13-0.85,0.29
			l-1.17-0.99c1.43-2.45,2.09-5.28,1.84-8.17c-0.3-3.49-1.89-6.65-4.45-9V13.55c0-0.02-0.01-0.03-0.01-0.04
			c-0.01-0.08-0.02-0.16-0.04-0.24c-0.01-0.02-0.02-0.04-0.03-0.07c-0.04-0.08-0.09-0.17-0.16-0.24l-8.93-9.3c0,0,0,0-0.01-0.01
			c-0.01-0.01-0.03-0.02-0.04-0.04c-0.06-0.05-0.13-0.1-0.2-0.13c-0.04-0.01-0.06-0.02-0.09-0.04c-0.07-0.02-0.15-0.04-0.22-0.04
			c-0.02,0-0.04-0.01-0.06-0.01H6.45c-0.48,0-0.87,0.38-0.87,0.87v42.56c0,0.48,0.38,0.87,0.87,0.87h15.88
			c2.57,2.08,5.65,3.1,8.73,3.1c3.15,0,6.27-1.08,8.8-3.17c0.05-0.02,0.11-0.05,0.15-0.09l1.16,0.97c-0.11,0.29-0.16,0.58-0.13,0.89
			c0.04,0.53,0.3,1.01,0.71,1.36l11.18,9.39c0.37,0.31,0.81,0.47,1.29,0.47c0.06,0,0.12,0,0.18-0.01c0.53-0.04,1.01-0.3,1.36-0.71
			l2.2-2.61c0.3-0.37,0.47-0.81,0.47-1.29C58.42,55.94,58.42,55.89,58.41,55.83z M31.49,6.4l6.04,6.28h-6.04V6.4z M7.32,45.94V5.12
			h22.44v8.43c0,0.48,0.39,0.87,0.87,0.87h8.07v10.95c-5.79-3.82-13.67-2.78-18.23,2.65c-4.43,5.27-4.24,12.88,0.1,17.93H7.32z
			 M40.35,44.73c-4.3,5.12-11.97,5.79-17.08,1.48c-5.12-4.3-5.79-11.97-1.48-17.08c2.4-2.84,5.83-4.32,9.29-4.32
			c2.75,0,5.52,0.93,7.79,2.84c2.48,2.08,4,5.01,4.28,8.24C43.43,39.11,42.44,42.25,40.35,44.73z M41.25,46.3
			c0.14-0.15,0.3-0.3,0.43-0.46c0.13-0.16,0.25-0.33,0.38-0.49l0.95,0.8l-0.8,0.95L41.25,46.3z M56.62,56.17l-2.19,2.61
			c-0.06,0.08-0.14,0.09-0.19,0.1c-0.04,0-0.13,0-0.2-0.06l-11.18-9.4c-0.08-0.06-0.09-0.13-0.1-0.18c0-0.05,0-0.13,0.06-0.2
			l2.06-2.45l0.14-0.16c0.06-0.08,0.14-0.1,0.18-0.1h0.03c0.04,0,0.11,0.01,0.17,0.06l11.18,9.39c0.08,0.06,0.1,0.14,0.1,0.19
			C56.69,56.03,56.68,56.1,56.62,56.17z"></path><path fill="#ea9847" d="M43,46.15l-0.8,0.95l-0.96-0.8c0.14-0.15,0.3-0.3,0.43-0.46c0.13-0.16,0.25-0.33,0.38-0.49L43,46.15z"></path><path fill="#faa951" d="M56.68 55.98c.01.05 0 .13-.06.2l-2.19 2.61c-.06.08-.14.09-.19.1-.04 0-.13 0-.2-.06l-11.18-9.4c-.08-.06-.09-.13-.1-.18 0-.05 0-.13.06-.2l2.06-2.45.14-.16c.06-.08.14-.1.18-.1h.03c.04 0 .11.01.17.06l11.18 9.39C56.67 55.85 56.68 55.93 56.68 55.98zM43.14 35.88c-.28-3.23-1.8-6.15-4.28-8.24-2.27-1.9-5.04-2.84-7.79-2.84-3.46 0-6.9 1.48-9.29 4.32-4.3 5.12-3.63 12.78 1.48 17.08 5.12 4.3 12.78 3.64 17.08-1.48C42.44 42.25 43.43 39.11 43.14 35.88zM39.25 43.81c-1.84 2.18-4.42 3.52-7.26 3.77-.31.03-.63.04-.94.04-2.51 0-4.92-.87-6.86-2.5-2.18-1.83-3.52-4.41-3.77-7.25-.24-2.84.64-5.62 2.47-7.8 1.83-2.19 4.41-3.53 7.26-3.77 2.84-.25 5.61.63 7.79 2.47 2.19 1.83 3.53 4.41 3.77 7.25C41.96 38.85 41.09 41.62 39.25 43.81z"></path><polygon fill="#faa951" points="37.53 12.68 31.49 12.68 31.49 6.4"></polygon><path fill="#ddd" d="M30.62,14.42c-0.47,0-0.87-0.38-0.87-0.87V5.12H7.32v40.83h13.25c-4.34-5.05-4.53-12.66-0.1-17.93
			c4.56-5.43,12.44-6.47,18.23-2.65V14.42H30.62z M15.72,41.19h-5.12c-0.48,0-0.87-0.38-0.87-0.87c0-0.47,0.38-0.87,0.87-0.87h5.12
			c0.47,0,0.87,0.39,0.87,0.87C16.59,40.8,16.2,41.19,15.72,41.19z M15.72,35.27h-5.12c-0.48,0-0.87-0.39-0.87-0.87
			c0-0.48,0.38-0.87,0.87-0.87h5.12c0.47,0,0.87,0.38,0.87,0.87C16.59,34.88,16.2,35.27,15.72,35.27z M17.59,29.35h-6.98
			c-0.48,0-0.87-0.38-0.87-0.87c0-0.47,0.38-0.87,0.87-0.87h6.98c0.48,0,0.87,0.39,0.87,0.87C18.46,28.97,18.07,29.35,17.59,29.35z
			 M22.2,23.44H10.61c-0.48,0-0.87-0.39-0.87-0.87c0-0.48,0.38-0.87,0.87-0.87H22.2c0.47,0,0.87,0.38,0.87,0.87
			C23.07,23.05,22.67,23.44,22.2,23.44z M26.16,17.52H10.61c-0.48,0-0.87-0.38-0.87-0.87c0-0.47,0.38-0.87,0.87-0.87h15.55
			c0.48,0,0.87,0.39,0.87,0.87C27.03,17.14,26.64,17.52,26.16,17.52z M26.16,11.61H10.61c-0.48,0-0.87-0.38-0.87-0.87
			c0-0.48,0.38-0.87,0.87-0.87h15.55c0.48,0,0.87,0.38,0.87,0.87C27.03,11.22,26.64,11.61,26.16,11.61z"></path><path d="M41.71,36.01c-0.24-2.84-1.58-5.42-3.77-7.25c-2.18-1.84-4.95-2.72-7.79-2.47c-2.85,0.24-5.43,1.58-7.26,3.77
			c-1.83,2.18-2.71,4.95-2.47,7.8c0.25,2.84,1.59,5.42,3.77,7.25c1.94,1.64,4.35,2.5,6.86,2.5c0.31,0,0.63-0.01,0.94-0.04
			c2.84-0.25,5.42-1.59,7.26-3.77C41.09,41.62,41.96,38.85,41.71,36.01z M37.92,42.69c-1.54,1.83-3.69,2.95-6.08,3.17
			c-2.38,0.21-4.7-0.53-6.53-2.07c-1.83-1.53-2.95-3.69-3.16-6.07c-0.21-2.38,0.53-4.7,2.07-6.54c1.54-1.82,3.69-2.95,6.07-3.16
			c0.27-0.03,0.53-0.04,0.8-0.04c2.1,0,4.11,0.73,5.74,2.1c1.83,1.54,2.95,3.7,3.16,6.08C40.19,38.54,39.46,40.86,37.92,42.69z"></path><path fill="#ff5052" d="M39.99,36.16c-0.21-2.38-1.32-4.54-3.16-6.08c-1.63-1.37-3.64-2.1-5.74-2.1c-0.27,0-0.53,0.01-0.8,0.04
			c-2.38,0.21-4.53,1.33-6.07,3.16c-1.54,1.83-2.27,4.16-2.07,6.54c0.21,2.38,1.32,4.54,3.16,6.07c1.83,1.55,4.15,2.28,6.53,2.07
			c2.39-0.21,4.54-1.33,6.08-3.17C39.46,40.86,40.19,38.54,39.99,36.16z M31.94,43.68c0,0.47-0.38,0.86-0.87,0.86
			c-0.48,0-0.87-0.38-0.87-0.86v-0.71c0-0.47,0.38-0.87,0.87-0.87c0.48,0,0.87,0.39,0.87,0.87V43.68z M31.94,38.54v2.1
			c0,0.47-0.38,0.87-0.87,0.87c-0.48,0-0.87-0.39-0.87-0.87v-2.88c0-0.48,0.38-0.87,0.87-0.87c1.47,0,2.67-1.2,2.67-2.67
			c0-1.48-1.2-2.67-2.67-2.67c-1.05,0-2,0.62-2.43,1.57c-0.2,0.44-0.71,0.64-1.14,0.44c-0.44-0.2-0.64-0.72-0.44-1.15
			c0.72-1.57,2.29-2.58,4.02-2.58c2.42,0,4.4,1.97,4.4,4.4C35.47,36.36,33.95,38.14,31.94,38.54z"></path><path d="M35.47 34.23c0 2.13-1.52 3.91-3.53 4.31v2.1c0 .47-.38.87-.87.87-.48 0-.87-.39-.87-.87v-2.88c0-.48.38-.87.87-.87 1.47 0 2.67-1.2 2.67-2.67 0-1.48-1.2-2.67-2.67-2.67-1.05 0-2 .62-2.43 1.57-.2.44-.71.64-1.14.44-.44-.2-.64-.72-.44-1.15.72-1.57 2.29-2.58 4.02-2.58C33.49 29.83 35.47 31.79 35.47 34.23zM31.94 42.97v.71c0 .47-.38.86-.87.86-.48 0-.87-.38-.87-.86v-.71c0-.47.38-.87.87-.87C31.55 42.11 31.94 42.5 31.94 42.97zM27.03 10.74c0 .48-.38.87-.87.87H10.61c-.48 0-.87-.38-.87-.87 0-.48.38-.87.87-.87h15.55C26.64 9.87 27.03 10.26 27.03 10.74zM27.03 16.65c0 .48-.38.87-.87.87H10.61c-.48 0-.87-.38-.87-.87 0-.47.38-.87.87-.87h15.55C26.64 15.78 27.03 16.18 27.03 16.65zM23.07 22.57c0 .47-.39.87-.87.87H10.61c-.48 0-.87-.39-.87-.87 0-.48.38-.87.87-.87H22.2C22.67 21.71 23.07 22.09 23.07 22.57zM18.46 28.49c0 .48-.38.87-.87.87h-6.98c-.48 0-.87-.38-.87-.87 0-.47.38-.87.87-.87h6.98C18.07 27.62 18.46 28.01 18.46 28.49zM16.59 34.41c0 .47-.39.87-.87.87h-5.12c-.48 0-.87-.39-.87-.87 0-.48.38-.87.87-.87h5.12C16.2 33.54 16.59 33.92 16.59 34.41zM16.59 40.32c0 .48-.39.87-.87.87h-5.12c-.48 0-.87-.38-.87-.87 0-.47.38-.87.87-.87h5.12C16.2 39.45 16.59 39.84 16.59 40.32z"></path></svg>